<?xml version="1.0" encoding="iso-8859-1"?>
<!-- Generator: Adobe Illustrator 19.0.0, SVG Export Plug-In . SVG Version: 6.00 Build 0)  -->
<svg version="1.1" id="Capa_1" xmlns="http://www.w3.org/2000/svg" xmlns:xlink="http://www.w3.org/1999/xlink" x="0px" y="0px"
	 viewBox="0 0 480 480" style="enable-background:new 0 0 480 480;" xml:space="preserve">
<path style="fill:#0378A3;" d="M80,8h320c8.837,0,16,7.163,16,16v432c0,8.837-7.163,16-16,16H80c-8.837,0-16-7.163-16-16V24
	C64,15.163,71.163,8,80,8z"/>
<path style="fill:#4D4D4D;" d="M96,96h288v96H96V96z"/>
<path style="fill:#29485A;" d="M96,40h120v24H96V40z"/>
<g>
	<path style="fill:#CCCCCC;" d="M96,224h48v48H96V224z"/>
	<path style="fill:#CCCCCC;" d="M176,224h48v48h-48V224z"/>
	<path style="fill:#CCCCCC;" d="M256,224h48v48h-48V224z"/>
	<path style="fill:#CCCCCC;" d="M336,224h48v48h-48V224z"/>
	<path style="fill:#CCCCCC;" d="M96,304h48v48H96V304z"/>
	<path style="fill:#CCCCCC;" d="M176,304h48v48h-48V304z"/>
	<path style="fill:#CCCCCC;" d="M256,304h48v48h-48V304z"/>
	<path style="fill:#CCCCCC;" d="M336,304h48v128h-48V304z"/>
	<path style="fill:#CCCCCC;" d="M96,384h48v48H96V384z"/>
	<path style="fill:#CCCCCC;" d="M176,384h48v48h-48V384z"/>
	<path style="fill:#CCCCCC;" d="M256,384h48v48h-48V384z"/>
</g>
<g>
	<path style="fill:#666666;" d="M120,192l130-96H96v96H120z"/>
	<path style="fill:#666666;" d="M312,96l-128,96h111l89-68V96H312z"/>
</g>
<path d="M424,456V24c0-13.255-10.745-24-24-24H80C66.745,0,56,10.745,56,24v432c0,13.255,10.745,24,24,24h320
	C413.255,480,424,469.255,424,456z M72,456V24c0-4.418,3.582-8,8-8h320c4.418,0,8,3.582,8,8v432c0,4.418-3.582,8-8,8H80
	C75.582,464,72,460.418,72,456z"/>
<path d="M384,88H96c-4.418,0-8,3.582-8,8v96c0,4.418,3.582,8,8,8h288c4.418,0,8-3.582,8-8V96C392,91.582,388.418,88,384,88z
	 M376,184H104v-80h272V184z"/>
<path d="M96,72h120c4.418,0,8-3.582,8-8V40c0-4.418-3.582-8-8-8H96c-4.418,0-8,3.582-8,8v24C88,68.418,91.582,72,96,72z M104,48h104
	v8H104V48z"/>
<path d="M144,216H96c-4.418,0-8,3.582-8,8v48c0,4.418,3.582,8,8,8h48c4.418,0,8-3.582,8-8v-48C152,219.582,148.418,216,144,216z
	 M136,264h-32v-32h32V264z"/>
<path d="M224,216h-48c-4.418,0-8,3.582-8,8v48c0,4.418,3.582,8,8,8h48c4.418,0,8-3.582,8-8v-48C232,219.582,228.418,216,224,216z
	 M216,264h-32v-32h32V264z"/>
<path d="M304,216h-48c-4.418,0-8,3.582-8,8v48c0,4.418,3.582,8,8,8h48c4.418,0,8-3.582,8-8v-48C312,219.582,308.418,216,304,216z
	 M296,264h-32v-32h32V264z"/>
<path d="M384,216h-48c-4.418,0-8,3.582-8,8v48c0,4.418,3.582,8,8,8h48c4.418,0,8-3.582,8-8v-48C392,219.582,388.418,216,384,216z
	 M376,264h-32v-32h32V264z"/>
<path d="M144,296H96c-4.418,0-8,3.582-8,8v48c0,4.418,3.582,8,8,8h48c4.418,0,8-3.582,8-8v-48C152,299.582,148.418,296,144,296z
	 M136,344h-32v-32h32V344z"/>
<path d="M224,296h-48c-4.418,0-8,3.582-8,8v48c0,4.418,3.582,8,8,8h48c4.418,0,8-3.582,8-8v-48C232,299.582,228.418,296,224,296z
	 M216,344h-32v-32h32V344z"/>
<path d="M304,296h-48c-4.418,0-8,3.582-8,8v48c0,4.418,3.582,8,8,8h48c4.418,0,8-3.582,8-8v-48C312,299.582,308.418,296,304,296z
	 M296,344h-32v-32h32V344z"/>
<path d="M384,296h-48c-4.418,0-8,3.582-8,8v128c0,4.418,3.582,8,8,8h48c4.418,0,8-3.582,8-8V304C392,299.582,388.418,296,384,296z
	 M376,424h-32V312h32V424z"/>
<path d="M144,376H96c-4.418,0-8,3.582-8,8v48c0,4.418,3.582,8,8,8h48c4.418,0,8-3.582,8-8v-48C152,379.582,148.418,376,144,376z
	 M136,424h-32v-32h32V424z"/>
<path d="M224,376h-48c-4.418,0-8,3.582-8,8v48c0,4.418,3.582,8,8,8h48c4.418,0,8-3.582,8-8v-48C232,379.582,228.418,376,224,376z
	 M216,424h-32v-32h32V424z"/>
<path d="M304,376h-48c-4.418,0-8,3.582-8,8v48c0,4.418,3.582,8,8,8h48c4.418,0,8-3.582,8-8v-48C312,379.582,308.418,376,304,376z
	 M296,424h-32v-32h32V424z"/>
<g>
</g>
<g>
</g>
<g>
</g>
<g>
</g>
<g>
</g>
<g>
</g>
<g>
</g>
<g>
</g>
<g>
</g>
<g>
</g>
<g>
</g>
<g>
</g>
<g>
</g>
<g>
</g>
<g>
</g>
</svg>
