<?xml version="1.0"?>
<svg xmlns="http://www.w3.org/2000/svg" height="512px" viewBox="0 0 496.00023 496" width="512px"><path d="m152 408h-80v-96c0-4.414062-3.582031-8-8-8h-43.441406l50.691406-108.617188c.496094-1.054687.75-2.214843.75-3.382812 0-46.601562 33.390625-85.511719 77.488281-94.167969-13.695312 25.71875-21.488281 55.046875-21.488281 86.167969h16c0-92.640625 75.359375-168 168-168v-16c-63.0625 0-118.800781 31.902344-151.96875 80.398438-57.445312 4.074218-103.09375 51.546874-104.015625 109.792968l-55.261719 118.425782c-1.160156 2.480468-.96875 5.375.503906 7.679687 1.460938 2.3125 4.007813 3.703125 6.742188 3.703125h48v96c0 4.417969 3.585938 8 8 8h80v72h16v-80c0-4.414062-3.582031-8-8-8zm0 0" fill="#D80027"/><path d="m312 80c-57.34375 0-104 46.65625-104 104s46.65625 104 104 104 104-46.65625 104-104-46.65625-104-104-104zm0 160c-30.878906 0-56-25.121094-56-56s25.121094-56 56-56 56 25.121094 56 56-25.121094 56-56 56zm-8-127.527344c-13.863281 1.542969-26.527344 7.039063-36.886719 15.328125l-11.386719-11.382812c13.335938-11.128907 30.007813-18.355469 48.273438-20.011719zm52.886719 15.328125c-10.359375-8.289062-23.023438-13.785156-36.886719-15.328125v-16.066406c18.265625 1.65625 34.929688 8.890625 48.273438 20.011719zm-112.46875-.074219 11.382812 11.386719c-9.863281 12.320313-15.800781 27.910157-15.800781 44.886719s5.9375 32.566406 15.800781 44.886719l-11.382812 11.386719c-12.730469-15.273438-20.417969-34.890626-20.417969-56.273438s7.6875-41 20.417969-56.273438zm11.308593 123.859376 11.386719-11.386719c12.320313 9.863281 27.910157 15.800781 44.886719 15.800781s32.566406-5.9375 44.886719-15.800781l11.386719 11.386719c-15.273438 12.726562-34.890626 20.414062-56.273438 20.414062s-41-7.6875-56.273438-20.414062zm123.859376-11.3125-11.386719-11.386719c9.863281-12.320313 15.800781-27.910157 15.800781-44.886719s-5.9375-32.566406-15.800781-44.886719l11.386719-11.386719c12.726562 15.273438 20.414062 34.890626 20.414062 56.273438s-7.6875 41-20.414062 56.273438zm0 0" fill="#D80027"/><path d="m312 352v16c101.457031 0 184-82.542969 184-184h-16c0 92.640625-75.359375 168-168 168zm0 0" fill="#D80027"/><path d="m488 0h-80c-3.230469 0-6.152344 1.953125-7.390625 4.9375-1.242187 2.992188-.554687 6.429688 1.734375 8.71875l18.34375 18.34375-36.742188 36.742188c-12.449218-7.8125-25.839843-13.46875-39.945312-16.871094v-11.871094c0-4.414062-3.582031-8-8-8h-48c-4.414062 0-8 3.585938-8 8v11.863281c-14.199219 3.417969-27.609375 9.050781-40 16.824219l-10.34375-10.34375c-3.128906-3.128906-8.183594-3.128906-11.3125 0l-32 32c-3.128906 3.128906-3.128906 8.183594 0 11.3125l10.34375 10.34375c-7.765625 12.390625-13.40625 25.800781-16.824219 40h-11.863281c-4.414062 0-8 3.585938-8 8v48c0 4.417969 3.585938 8 8 8h11.871094c3.410156 14.105469 9.066406 27.496094 16.875 39.945312l-36.746094 36.742188-18.34375-18.34375c-2.296875-2.296875-5.726562-2.976562-8.71875-1.734375-2.984375 1.238281-4.9375 4.160156-4.9375 7.390625v80c0 4.417969 3.585938 8 8 8h80c3.230469 0 6.152344-1.953125 7.390625-4.9375 1.242187-2.992188.554687-6.429688-1.734375-8.71875l-18.34375-18.34375 36.742188-36.742188c12.457031 7.8125 25.832031 13.46875 39.945312 16.871094v11.871094c0 4.417969 3.585938 8 8 8h.527344l-23.816406 52.703125c-.472657 1.039063-.710938 2.160156-.710938 3.296875v104h16v-102.28125l26.082031-57.71875h29.917969c4.417969 0 8-3.582031 8-8v-11.863281c14.199219-3.417969 27.609375-9.054688 40-16.824219l10.34375 10.34375c3.128906 3.128906 8.183594 3.128906 11.3125 0l32-32c3.128906-3.128906 3.128906-8.183594 0-11.3125l-10.34375-10.34375c7.769531-12.390625 13.40625-25.800781 16.824219-40h11.863281c4.417969 0 8-3.582031 8-8v-48c0-4.414062-3.582031-8-8-8h-11.863281c-3.410157-14.105469-9.066407-27.496094-16.871094-39.945312l36.734375-36.742188 18.34375 18.34375c2.289062 2.28125 5.71875 2.96875 8.71875 1.734375 2.984375-1.238281 4.9375-4.160156 4.9375-7.390625v-80c0-4.414062-3.582031-8-8-8zm-8 68.6875-10.34375-10.34375c-3.128906-3.128906-8.183594-3.128906-11.3125 0l-47.015625 47.015625c-2.734375 2.738281-3.121094 7.046875-.910156 10.226563 9.75 14.007812 16.277343 29.445312 19.398437 45.902343.710938 3.785157 4.015625 6.511719 7.855469 6.511719h10.328125v32h-10.328125c-3.839844 0-7.144531 2.726562-7.855469 6.503906-3.160156 16.601563-9.664062 32.0625-19.335937 45.960938-2.214844 3.175781-1.832031 7.496094.902343 10.230468l9.304688 9.304688-20.6875 20.6875-9.304688-9.304688c-2.734374-2.734374-7.046874-3.117187-10.230468-.902343-13.886719 9.679687-29.351563 16.183593-45.960938 19.335937-3.769531.710938-6.503906 4.015625-6.503906 7.855469v10.328125h-32v-10.328125c0-3.839844-2.734375-7.144531-6.503906-7.855469-16.457032-3.121094-31.894532-9.648437-45.902344-19.398437-3.175781-2.210938-7.488281-1.824219-10.226562.910156l-47.015626 47.015625c-3.128906 3.128906-3.128906 8.183594 0 11.3125l10.335938 10.34375h-52.6875v-52.6875l10.34375 10.34375c3.128906 3.128906 8.183594 3.128906 11.3125 0l47.015625-47.015625c2.738281-2.738281 3.121094-7.046875.914063-10.222656-9.746094-14-16.273438-29.449219-19.402344-45.90625-.710938-3.785157-4.015625-6.511719-7.855469-6.511719h-10.328125v-32h10.328125c3.839844 0 7.144531-2.734375 7.855469-6.503906 3.152344-16.601563 9.65625-32.0625 19.335937-45.960938 2.214844-3.175781 1.832031-7.496094-.902343-10.230468l-9.304688-9.304688 20.6875-20.6875 9.304688 9.304688c2.734374 2.734374 7.046874 3.125 10.230468.902343 13.898438-9.679687 29.351563-16.183593 45.960938-19.335937 3.769531-.710938 6.503906-4.015625 6.503906-7.855469v-10.328125h32v10.328125c0 3.839844 2.734375 7.144531 6.503906 7.855469 16.449219 3.121094 31.894532 9.648437 45.90625 19.402344 3.183594 2.207031 7.492188 1.832031 10.222656-.914063l47.015626-47.015625c3.128906-3.128906 3.128906-8.183594 0-11.3125l-10.335938-10.34375h52.6875zm0 0" fill="#D80027"/></svg>
