<svg xmlns="http://www.w3.org/2000/svg" height="511pt" version="1.1" viewBox="0 1 511 511.99998" width="511pt">
<g id="surface1">
<path d="M 198.265625 335.417969 L 152.421875 381.273438 L 141.820312 370.667969 L 131.195312 360.054688 L 177.050781 314.203125 Z M 198.265625 335.417969 " style=" stroke:none;fill-rule:nonzero;fill:rgb(0%,30.588235%,69.019608%);fill-opacity:1;" />
<path d="M 152.421875 381.273438 L 141.820312 370.667969 L 187.671875 324.824219 L 198.265625 335.417969 Z M 152.421875 381.273438 " style=" stroke:none;fill-rule:nonzero;fill:rgb(0%,23.921569%,54.509804%);fill-opacity:1;" />
<path d="M 455 335.417969 C 416.691406 373.738281 366.355469 392.894531 316.03125 392.894531 C 265.695312 392.894531 215.371094 373.738281 177.050781 335.417969 C 100.417969 258.796875 100.417969 134.097656 177.050781 57.46875 C 215.371094 19.15625 265.695312 0 316.03125 0 C 366.355469 0 416.691406 19.15625 455 57.46875 C 531.632812 134.097656 531.632812 258.796875 455 335.417969 Z M 455 335.417969 " style=" stroke:none;fill-rule:nonzero;fill:rgb(0%,52.941176%,100%);fill-opacity:1;" />
<path d="M 197.777344 389.625 L 160.304688 427.09375 L 90.914062 496.484375 C 80.914062 506.488281 67.609375 512 53.453125 512 C 39.300781 512 25.996094 506.488281 15.992188 496.484375 L 15.984375 496.476562 C -4.664062 475.820312 -4.664062 442.210938 15.992188 421.554688 L 122.84375 314.703125 L 160.316406 352.171875 Z M 197.777344 389.625 " style=" stroke:none;fill-rule:nonzero;fill:rgb(100%,65.490196%,12.54902%);fill-opacity:1;" />
<path d="M 455 335.417969 C 416.691406 373.738281 366.355469 392.894531 316.03125 392.894531 L 316.03125 0 C 366.355469 0 416.691406 19.15625 455 57.46875 C 531.632812 134.097656 531.632812 258.796875 455 335.417969 Z M 455 335.417969 " style=" stroke:none;fill-rule:nonzero;fill:rgb(29.411765%,35.686275%,89.803922%);fill-opacity:1;" />
<path d="M 197.777344 389.625 L 160.304688 427.09375 L 90.914062 496.484375 C 80.914062 506.488281 67.609375 512 53.453125 512 C 39.300781 512 25.996094 506.488281 15.992188 496.484375 L 15.984375 496.476562 L 160.316406 352.171875 Z M 197.777344 389.625 " style=" stroke:none;fill-rule:nonzero;fill:rgb(100%,52.941176%,0%);fill-opacity:1;" />
<path d="M 160.304688 427.09375 L 139.078125 448.320312 L 101.617188 410.859375 L 64.15625 373.390625 L 85.375 352.171875 L 122.84375 389.644531 Z M 160.304688 427.09375 " style=" stroke:none;fill-rule:nonzero;fill:rgb(0%,52.941176%,100%);fill-opacity:1;" />
<path d="M 101.617188 410.863281 L 122.839844 389.636719 L 160.300781 427.089844 L 139.082031 448.316406 Z M 101.617188 410.863281 " style=" stroke:none;fill-rule:nonzero;fill:rgb(29.411765%,35.686275%,89.803922%);fill-opacity:1;" />
<path d="M 422.003906 302.429688 C 392.785156 331.648438 354.414062 346.25 316.03125 346.25 C 277.648438 346.25 239.269531 331.648438 210.050781 302.429688 C 151.613281 243.992188 151.613281 148.902344 210.050781 90.464844 C 239.269531 61.246094 277.648438 46.644531 316.03125 46.644531 C 354.402344 46.644531 392.785156 61.246094 422.003906 90.464844 C 480.4375 148.902344 480.4375 243.992188 422.003906 302.429688 Z M 422.003906 302.429688 " style=" stroke:none;fill-rule:nonzero;fill:rgb(87.058824%,88.235294%,97.254902%);fill-opacity:1;" />
<path d="M 422.003906 302.429688 C 392.785156 331.648438 354.414062 346.25 316.03125 346.25 L 316.03125 46.644531 C 354.402344 46.644531 392.785156 61.246094 422.003906 90.464844 C 480.4375 148.902344 480.4375 243.992188 422.003906 302.429688 Z M 422.003906 302.429688 " style=" stroke:none;fill-rule:nonzero;fill:rgb(76.470588%,78.039216%,96.078431%);fill-opacity:1;" />
<path d="M 364.796875 189.746094 C 364.796875 216.492188 343.027344 238.261719 316.28125 238.261719 L 316.03125 238.261719 C 289.382812 238.121094 267.765625 216.414062 267.765625 189.746094 C 267.765625 163.066406 289.382812 141.371094 316.03125 141.230469 L 316.28125 141.230469 C 343.027344 141.230469 364.796875 162.988281 364.796875 189.746094 Z M 364.796875 189.746094 " style=" stroke:none;fill-rule:nonzero;fill:rgb(0%,30.588235%,69.019608%);fill-opacity:1;" />
<path d="M 364.796875 189.746094 C 364.796875 216.492188 343.027344 238.261719 316.28125 238.261719 L 316.03125 238.261719 L 316.03125 141.230469 L 316.28125 141.230469 C 343.027344 141.230469 364.796875 162.988281 364.796875 189.746094 Z M 364.796875 189.746094 " style=" stroke:none;fill-rule:nonzero;fill:rgb(0%,23.921569%,54.509804%);fill-opacity:1;" />
<path d="M 409.289062 198.65625 L 383.339844 213.722656 C 383.089844 213.300781 357.894531 171.238281 316.28125 171.238281 L 316.03125 171.238281 C 275.570312 171.410156 249.3125 213.574219 249.050781 214.003906 L 223.453125 198.339844 C 224.882812 196.007812 258.945312 141.390625 316.03125 141.230469 L 316.28125 141.230469 C 375.386719 141.230469 407.929688 196.316406 409.289062 198.65625 Z M 409.289062 198.65625 " style=" stroke:none;fill-rule:nonzero;fill:rgb(0%,52.941176%,100%);fill-opacity:1;" />
<path d="M 409.289062 198.65625 L 383.339844 213.722656 C 383.089844 213.300781 357.894531 171.238281 316.28125 171.238281 L 316.03125 171.238281 L 316.03125 141.230469 L 316.28125 141.230469 C 375.386719 141.230469 407.929688 196.316406 409.289062 198.65625 Z M 409.289062 198.65625 " style=" stroke:none;fill-rule:nonzero;fill:rgb(29.411765%,35.686275%,89.803922%);fill-opacity:1;" />
</g>
</svg>