<?xml version="1.0" encoding="iso-8859-1"?>
<!-- Generator: Adobe Illustrator 16.0.0, SVG Export Plug-In . SVG Version: 6.00 Build 0)  -->
<!DOCTYPE svg PUBLIC "-//W3C//DTD SVG 1.1//EN" "http://www.w3.org/Graphics/SVG/1.1/DTD/svg11.dtd">
<svg xmlns="http://www.w3.org/2000/svg" xmlns:xlink="http://www.w3.org/1999/xlink" version="1.1" id="Capa_1" x="0px" y="0px" width="512px" height="512px" viewBox="0 0 463.008 463.008" style="enable-background:new 0 0 463.008 463.008;" xml:space="preserve">
<g>
	<g id="icons_9_">
		<g>
			<path d="M443.91,153.433h-68.079c-6.963,0-13.374,4.021-16.731,10.494c0,0-6.45,13.3-10.417,21.663     c-3.967,8.363-5.019,10.142-11.767,10.142c-8.668,0-321.509,0-321.509,0c-4.998,0-9.687,2.425-12.574,6.504     c-2.889,4.079-3.618,9.306-1.959,14.02l49.771,141.332c1.73,4.913,5.701,8.387,10.358,9.704c1.435,0.618,2.889,0.957,4.297,0.957     h226.325c6.963,0,13.374-4.021,16.73-10.494c0,0,71.513-148.913,75.27-156.524c3.757-7.611,9.668-7.944,15.34-7.944     s44.945,0.678,44.945,0.678c10.548,0,19.098-9.073,19.098-20.265C463.008,162.506,454.458,153.433,443.91,153.433z" fill="#FFDA44"/>
			<ellipse cx="114.199" cy="412.303" rx="28.784" ry="30.543" fill="#FFDA44"/>
			<ellipse cx="252.033" cy="412.303" rx="28.781" ry="30.543" fill="#FFDA44"/>
			<path d="M224.074,20.162c-13.757,0-26.226,5.49-35.359,14.387c-9.134-8.897-21.603-14.387-35.359-14.387     c-27.998,0-50.695,22.697-50.695,50.695c0,10.868,3.432,20.928,9.255,29.181c2.319,3.628,5.106,6.928,8.28,9.81l52.588,52.668     c5.266,5.267,10.533,10.533,15.8,10.533c0.044,0,0.088-0.007,0.132-0.008c0.044,0.001,0.088,0.008,0.132,0.008     c5.267,0,10.534-5.266,15.8-10.533l52.588-52.668c3.174-2.882,5.961-6.182,8.279-9.81c5.823-8.253,9.256-18.313,9.256-29.181     C274.771,42.859,252.072,20.162,224.074,20.162z" fill="#FFDA44"/>
		</g>
	</g>
</g>
<g>
</g>
<g>
</g>
<g>
</g>
<g>
</g>
<g>
</g>
<g>
</g>
<g>
</g>
<g>
</g>
<g>
</g>
<g>
</g>
<g>
</g>
<g>
</g>
<g>
</g>
<g>
</g>
<g>
</g>
</svg>
