<?xml version="1.0" encoding="iso-8859-1"?>
<!-- Generator: Adobe Illustrator 19.0.0, SVG Export Plug-In . SVG Version: 6.00 Build 0)  -->
<svg version="1.1" id="Capa_1" xmlns="http://www.w3.org/2000/svg" xmlns:xlink="http://www.w3.org/1999/xlink" x="0px" y="0px"
	 viewBox="0 0 428 428" style="enable-background:new 0 0 428 428;" xml:space="preserve">
<path style="fill:#FDC75B;" d="M417.9,56.2v59.9h-0.5H11.6h-1.5V56.2c0-22.1,17.9-40,40-40h327.7C400,16.2,417.9,34.1,417.9,56.2z"
	/>
<path style="fill:#ED664C;" d="M214,216.2c38.7,0,70,31.3,70,70s-31.3,70-70,70s-70-31.3-70-70S175.3,216.2,214,216.2z"/>
<polygon style="fill:#FDC75B;" points="234,171.8 243.8,188.1 214,214.6 184.2,188.1 194.1,171.8 "/>
<path style="fill:#ED664C;" d="M284,286.2c0-38.7-31.3-70-70-70s-70,31.3-70,70s31.3,70,70,70S284,324.8,284,286.2z M214,214.6
	l29.8-26.5l-9.8-16.3h-39.9l-9.8,16.3L214,214.6z M417.9,116.1v255.7c0,22.1-17.9,40-40,40H50.1c-22.1,0-40-17.9-40-40V116.1h1.5
	h405.7H417.9z"/>
<path d="M428,56c0-27.6-22.4-50-50-50H50C22.4,6,0,28.4,0,56v316c0,27.6,22.4,50,50,50h328c27.6,0,50-22.4,50-50V56z M50.1,26h327.7
	c16.5,0,30.1,13.6,30.1,30.2V106H20V56.2C20,39.6,33.6,26,50.1,26z M377.9,402H50.1C33.6,402,20,388.4,20,371.8V126h388v245.8
	C408,388.4,394.4,402,377.9,402z"/>
<path d="M68,83h41c5.5,0,10-4.5,10-10s-4.5-10-10-10H68c-5.5,0-10,4.5-10,10S62.5,83,68,83z"/>
<path d="M318,83h41c5.5,0,10-4.5,10-10s-4.5-10-10-10h-41c-5.5,0-10,4.5-10,10S312.5,83,318,83z"/>
<path d="M235.3,209.1l15.2-13.5c3.6-3.2,4.4-8.5,1.9-12.6l-9.8-16.2c-1.8-3-5.1-4.7-8.6-4.7h-39.9c-3.5,0-6.7,1.7-8.6,4.7l-9.8,16.2
	c-2.5,4.1-1.7,9.4,1.9,12.6l15.2,13.5c-33.8,9.3-58.7,40.3-58.7,77.1c0,44.1,35.9,80,80,80s80-35.9,80-80
	C294,249.4,269.1,218.4,235.3,209.1z M199.7,182h28.6l2.6,4.2l-16.9,15l-16.9-15L199.7,182z M214,346.2c-33.1,0-60-26.9-60-60
	s26.9-60,60-60s60,26.9,60,60S247.1,346.2,214,346.2z"/>
<g>
</g>
<g>
</g>
<g>
</g>
<g>
</g>
<g>
</g>
<g>
</g>
<g>
</g>
<g>
</g>
<g>
</g>
<g>
</g>
<g>
</g>
<g>
</g>
<g>
</g>
<g>
</g>
<g>
</g>
</svg>
